<?xml version="1.0" encoding="utf-8"?>
<!-- Generator: Adobe Illustrator 24.3.0, SVG Export Plug-In . SVG Version: 6.00 Build 0)  -->
<svg version="1.1" id="publicdomainvectors.org" xmlns="http://www.w3.org/2000/svg" xmlns:xlink="http://www.w3.org/1999/xlink"
	 x="0px" y="0px" viewBox="0 0 660 660" style="enable-background:new 0 0 660 660;" xml:space="preserve">
<style type="text/css">
	.st0{fill-rule:evenodd;clip-rule:evenodd;fill:#98C6F5;}
	.st1{fill-rule:evenodd;clip-rule:evenodd;fill:#B8DCFF;}
	.st2{fill-rule:evenodd;clip-rule:evenodd;fill:#669ED6;}
	.st3{fill-rule:evenodd;clip-rule:evenodd;fill:#DAEAFA;}
	.st4{fill-rule:evenodd;clip-rule:evenodd;fill:#5283B5;}
	.st5{fill-rule:evenodd;clip-rule:evenodd;fill:#7BB1E8;}
	.st6{fill-rule:evenodd;clip-rule:evenodd;fill:#588BBF;}
	.st7{fill-rule:evenodd;clip-rule:evenodd;fill:#3B6A99;}
	.st8{fill-rule:evenodd;clip-rule:evenodd;fill:#9BBCDE;}
	.st9{fill-rule:evenodd;clip-rule:evenodd;fill:#7CB54B;}
	.st10{fill-rule:evenodd;clip-rule:evenodd;fill:#75AD43;}
	.st11{fill-rule:evenodd;clip-rule:evenodd;fill:#5F992C;}
	.st12{fill-rule:evenodd;clip-rule:evenodd;fill:#6BA637;}
	.st13{fill-rule:evenodd;clip-rule:evenodd;fill:#589126;}
	.st14{fill-rule:evenodd;clip-rule:evenodd;fill:#FFFFFF;}
	.st15{fill-rule:evenodd;clip-rule:evenodd;fill:#396315;}
	.st16{fill-rule:evenodd;clip-rule:evenodd;fill:#4C7D20;}
</style>
<g>
	<rect x="2.1" class="st0" width="658" height="658"/>
	<path class="st1" d="M660,240.9v12.5C643.7,248.1,636.8,243,660,240.9L660,240.9z M660,290.7c-109.3,8-161.9,6.9-271.5-25.7
		c-49.7-14.8-52.5-16-105-11c-16.7,1.6-33.3,3.4-49.9,5.3c-16.8,1.7-35.2,2.5-51.5,6.7c-23.4,6-24.5,12.1-31.7,32l-2,4.1
		c-7.3,8.9-12.7,9.9-23.4,13.5c-10.7,3.7-21.6,8.6-32.2,11.8c-30.2,9.1-51.8-12-73.7,5.3c-7.1,5.6-11.6,17.8-17,26.9v41.5
		c6.8-3.6,14.6-4.5,23.8,4c23.4,21.5,35.6,33,66.6,44.1c14.3,5.1,53.7,11.9,57.9,25.8c3.6,12-24.5,44.3,33.3,24.1
		c0.1-2.7,0.4-4.6-2-6.2c-11.3-7.7,19.2-28.2,0.7-45.2c-15.6-14.3-70.5-17.5-97.9-33c-30-17-28.2-32.2-39.9-59.1
		c-2.8-5.8-13.2-16.9-10.4-19.6c8.1-8.1,30.3,9.1,36.6,14c11.3,8.7,18.8,15.3,33.3,17.4c18.4,2.7,45,13.6,63.5,20.3
		c71.6,25.9,50.8,47.8,140.6,45.3c89.1-2.5-43.6-44.5-59.1-49.8c-57.1-19.3,52-13.6,58.5-13.4c87.9,1.5,170.6,3.9,257.2,20.4
		c30.6,5.8,58.9,15.3,89.8,9.5c1.1-0.2,3.1-0.6,5.7-1.3v-30.7c-15.3-1.7-31.2-2.5-39.3-2.9c-55.2-3.2-104.7-11-159-17
		c-27.8-3-84.2-5.1-104.8-22.2c-8.6-7.2,55.6-4.4,58.4-4.2c61.2,3.4,114,9.9,176.2,8.6c21.6-0.5,45.3-1,68.5-2V290.7z"/>
	<g>
		<polygon class="st2" points="2.1,377.2 43.9,335.3 150.6,442 150.6,645.6 2.1,641.2 		"/>
		<path class="st3" d="M43.9,335.3l-32.5,56.1L53.8,414L2.1,434.7v-57.6L43.9,335.3L43.9,335.3z M2.1,471.7l25.1,12.2L2.1,495.3
			V471.7L2.1,471.7z M2.1,585.7l5.4,2.5l-5.4,2.9V585.7z"/>
	</g>
	<polygon class="st2" points="255.2,573.4 553.4,275.2 660,381.9 660,585.5 	"/>
	<polygon class="st4" points="660,476.6 660,484.8 549.4,473.9 581.1,455 546.6,439.5 579.8,433.2 539.9,408 558.8,404.3 
		539.1,388.2 578.2,408 568.1,414.8 617,442.3 600.2,443.1 	"/>
	<polygon class="st3" points="553.4,275.2 520.9,331.3 563.2,353.9 469.7,391.3 536.6,423.8 412.6,479.9 516.9,528.1 348.7,616.7 
		260.1,568.5 	"/>
	<path class="st5" d="M30.3,0H660v10.5c-41,3.6-79.2,6.6-92.6,8c-6.4,0.7-94.4,8.9-82.2,20.8c24.3,19.5,132.7,19,170.1,22.1
		c1.6,0.1,3.1,0.3,4.6,0.4v46c-58.5,1.6-103.4,8.8-164.2,28.9c-65.7,21.7-83.8,18-153.1,16c-45.4-1.3-37-0.7-78,9.6
		c-60.4,14.8-159.3,26.2-221,15.5c-11.8-2-26.3-5.6-41.5-9.4V156c29.9,7.1,56.8,12.5,97,10.1c52.7-3.2,138.8-21.7,182.7-44.8
		c49.7-26.1,55.6-20.2,113.3-16.1c17.7,1.3,35.2,2.4,53,2.8c6.9,0.1,52.3-2,52.1-8.5c-10-2.8-26.2-5.8-37.4-8.4
		c-33-7.2-109.9-19.1-141.5-13.9c-32.1,5.3-55.1,24-87.4,33.1c-7.7,2.2-53,13.4-56.5,4.3c-1.6-4.4,27.8-38.4-4.9-42.4
		c-35.1-2.2-126,29.8-168.9,33l-1.6,0.1V53c2.7,0.4,5.5,0.9,8.3,1.3c39,5.9,82.8,2.1,119.9-10c13.7-4.5-12.5-9.2-19.7-11.9
		c-13.1-4.9-27.1-12.9-41.5-18.5C56.8,9,43.6,4.4,30.3,0z"/>
	<polygon class="st6" points="21.9,522.7 303.5,247.3 320.1,224.5 636.7,541.1 	"/>
	<polygon class="st7" points="582.4,486.8 595,499.4 369.1,477.1 427.9,442.1 363.9,413.5 425.4,401.8 351.6,355.1 386.5,348.3 
		350.1,318.4 422.4,355 403.7,367.7 494.3,418.6 463.3,420.2 	"/>
	<polygon class="st3" points="320.1,224.5 287.6,280.6 329.9,303.2 236.4,340.6 303.4,373.1 179.4,429.2 283.7,477.4 115.4,566 
		26.8,517.8 	"/>
	<polygon class="st8" points="53.6,518.5 116.1,480.6 100.9,452.1 178.4,395.2 133.3,455.3 177.6,482.6 160.9,535.2 	"/>
	<path class="st9" d="M660,458.2V658H200.9C215.1,551.1,412.6,465.4,660,458.2z"/>
	<path class="st10" d="M660,478.2v173.8H405.6C415.5,577.1,515.7,512.6,660,478.2z"/>
	<path class="st11" d="M660,605.3V658H2.1V508.4c38-2.3,77.1-3.5,117.3-3.5C353.6,505,557.2,545.6,660,605.3z"/>
	<path class="st12" d="M603,658H391.1c-13.2-59.3-38.9-106.2-74.6-143c57.9,6.1,112,14.8,160.6,25.6
		C522.1,574.2,563.5,614.3,603,658z"/>
	<path class="st13" d="M660,624v34H2.1v-79.5c42.5-1.8,85.9-2.7,130-2.7C326.8,575.8,508.1,593.5,660,624z"/>
	<path class="st11" d="M603,658H391.1c-6-27-14.6-51.4-25.5-73.5c65.1,5,127.5,12,186.7,20.7C569.6,622.1,586.4,639.7,603,658z"/>
	<path class="st14" d="M77.4,209.2c61.2,0,122.4,0,183.5,0c-0.5-13.9-29.8-18.6-39-8c-9.6-26-50.3-23-57.4,0.6
		c-0.2-30.1-43.3-28.3-50.8-1.7C105.1,190.8,83.5,200.4,77.4,209.2z"/>
	<path class="st14" d="M334.3,132.5c61.2,0,122.4,0,183.5,0c-0.5-13.9-19-19.6-28.1-9c7.8-65.7-38.3-59.1-60.9-0.4
		c-0.2-30.1-43.3-28.3-50.8-1.7C369.3,112.1,340.3,123.6,334.3,132.5z"/>
	<polygon class="st15" points="202.3,570.5 226.2,507.2 249.3,562.1 232.6,553.3 272.8,629.3 243.8,619 279,658 193.1,658 
		193.1,628.4 206.6,616.2 193.1,617.8 193.1,610.3 213.8,572 	"/>
	<polygon class="st16" points="103.7,491.5 149.2,371.1 193.1,475.6 161.3,458.7 237.9,603.4 182.6,583.9 249.5,658 86,658 
		86,601.8 111.8,578.4 86,581.6 86,567.4 125.6,494.4 	"/>
	<path class="st14" d="M426.3,221.1c34.5,0,78.1,0,112.5,0c-0.3-7.8-19.8-11-25-5.1c-11.8-16.3-31.7-20.5-34.3-0.2
		c-7.6-23.7-35.2-25.6-28.7-0.9C431.9,200.7,420.8,210.5,426.3,221.1z"/>
	<polygon class="st15" points="23.1,459.8 77.2,316.5 129.5,440.8 91.7,420.7 182.8,593 117.1,569.8 196.8,658 2.1,658 2.1,591.1 
		32.7,563.3 2.1,567.1 2.1,550.1 61,425.8 	"/>
</g>
</svg>
